<svg id="Layer_3" enable-background="new 0 0 64 64" height="512" viewBox="0 0 64 64" width="512" xmlns="http://www.w3.org/2000/svg"><path d="m46.707 45.293c-.187-.188-.441-.293-.707-.293h-11v-21h23c.404 0 .77-.243.924-.617.155-.374.069-.804-.217-1.09l-7.793-7.793 7.793-7.793c.286-.286.372-.716.217-1.09-.154-.374-.52-.617-.924-.617h-23v-1c0-1.654-1.346-3-3-3s-3 1.346-3 3v41h-11c-.266 0-.52.105-.707.293l-16 16c-.286.286-.372.716-.217 1.09.154.374.52.617.924.617h60c.404 0 .77-.243.924-.617.155-.374.069-.804-.217-1.09zm8.879-38.293-6.793 6.793c-.391.391-.391 1.023 0 1.414l6.793 6.793h-20.586v-15zm-24.586-3c0-.552.448-1 1-1s1 .448 1 1v49h-2zm-12.586 43h10.586v7c0 .553.447 1 1 1h4c.553 0 1-.447 1-1v-7h10.586l3 3h-3.586c-.266 0-.52.105-.707.293l-3 3c-.391.391-.391 1.023 0 1.414l1.707 1.707v1.172l-3.414 3.414h-10.172l-5.707-5.707c-.187-.188-.441-.293-.707-.293h-3.586l-2.707-2.707c-.187-.188-.441-.293-.707-.293h-2.586zm-7 7h4.172l2.707 2.707c.187.188.441.293.707.293h3.586l4 4h-22.172zm31 7 2.293-2.293c.188-.187.293-.441.293-.707v-2c0-.266-.105-.52-.293-.707l-1.293-1.293 2-2h5.172l9 9z"/><path d="m8.211 39.614c.189.243.48.386.789.386s.6-.143.789-.386l5.609-7.212c1.034-1.328 1.602-2.986 1.602-4.668 0-2.03-.791-3.939-2.227-5.375l-.133-.133c-1.435-1.435-3.344-2.226-5.374-2.226h-.532c-2.03 0-3.939.791-5.375 2.227l-.133.133c-1.435 1.435-2.226 3.344-2.226 5.374 0 1.682.568 3.34 1.602 4.668zm-3.57-15.841.133-.133c1.057-1.057 2.464-1.64 3.96-1.64h.531c1.496 0 2.903.583 3.961 1.641l.133.133c1.058 1.057 1.641 2.464 1.641 3.96 0 1.239-.419 2.461-1.18 3.439l-4.82 6.198-4.82-6.197c-.761-.979-1.18-2.2-1.18-3.44 0-1.496.583-2.903 1.641-3.961z"/><path d="m9 32c2.206 0 4-1.794 4-4s-1.794-4-4-4-4 1.794-4 4 1.794 4 4 4zm0-6c1.103 0 2 .897 2 2s-.897 2-2 2-2-.897-2-2 .897-2 2-2z"/><path d="m54.734 28c-2.03 0-3.939.791-5.375 2.227l-.133.133c-1.435 1.435-2.226 3.344-2.226 5.374 0 1.682.568 3.34 1.602 4.668l5.609 7.212c.189.243.48.386.789.386s.6-.143.789-.386l5.609-7.212c1.034-1.328 1.602-2.986 1.602-4.668 0-2.03-.791-3.939-2.227-5.375l-.133-.133c-1.435-1.435-3.344-2.226-5.374-2.226zm4.625 3.773c1.058 1.058 1.641 2.465 1.641 3.961 0 1.239-.419 2.461-1.18 3.439l-4.82 6.198-4.82-6.197c-.761-.979-1.18-2.2-1.18-3.439 0-1.496.583-2.903 1.641-3.961l.133-.133c1.057-1.058 2.464-1.641 3.96-1.641h.531c1.496 0 2.903.583 3.961 1.641z"/><path d="m51 36c0 2.206 1.794 4 4 4s4-1.794 4-4-1.794-4-4-4-4 1.794-4 4zm6 0c0 1.103-.897 2-2 2s-2-.897-2-2 .897-2 2-2 2 .897 2 2z"/></svg>