<svg height="512" viewBox="0 0 512 512" width="512" xmlns="http://www.w3.org/2000/svg"><g id="Filled_outline" data-name="Filled outline"><path d="m368 488h-48l7.04-260.53.96-35.47h32l.77 28.61z" fill="#48add9"/><path d="m360.77 220.61-3-1.74a23 23 0 0 1 -24.7 1.99c-1.59 1.91-4.08 4.53-6.03 6.61l.96-35.47v-.04h32v.04z" fill="#45a7d1"/><path d="m486.425 266.43a188.119 188.119 0 0 0 -118.988-73.73c.018-.391.115-.76.115-1.156a23.93 23.93 0 0 0 -15.552-22.434v-137.06a8.246 8.246 0 0 0 -8.429-8.05 8.442 8.442 0 0 0 -7.781 4.954 188.127 188.127 0 0 0 -3.649 141.783 23.932 23.932 0 0 0 -12.141 20.81 24.289 24.289 0 0 0 .544 5.037l-116.61 67.326a8.247 8.247 0 0 0 -2.758 11.325 8.443 8.443 0 0 0 8.181 4.262 188.118 188.118 0 0 0 123.711-66.632 23.024 23.024 0 0 0 24.7-2l117.87 68.055a8.246 8.246 0 0 0 11.187-3.274 8.444 8.444 0 0 0 -.4-9.216z" fill="#4db7e5"/><path d="m24 440h256l64-192h-256z" fill="#60d1e0"/><path d="m26.182 440h253.818l64-192h-38.545z" fill="#5ac6d4"/><g fill="#3fb7c7"><path d="m344 248h-16.844l-64 192h16.844z"/><path d="m263.156 248-64 192h16.867l64-192z"/><path d="m199.156 248-64 192h16.867l64-192z"/><path d="m135.156 248-64 192h16.867l64-192z"/><path d="m53.333 352h256l5.334-16h-256z"/><path d="m37.333 400h256l5.334-16h-256z"/><path d="m74.667 288-5.334 16h256l5.334-16z"/></g><path d="m160 440h32v48h-32z" fill="#60d1e0" transform="matrix(-1 0 0 -1 352 928)"/><path d="m160 440h32v16h-32z" fill="#57bfcc" transform="matrix(-1 0 0 -1 352 896)"/><path d="m128 480h96v16h-96z" fill="#60d1e0"/><path d="m296 480h96v16h-96z" fill="#4db7e5"/><path d="m224 24a0 0 0 0 1 0 0 48 48 0 0 1 -48 48 0 0 0 0 1 0 0 48 48 0 0 1 48-48z" fill="#7eb457"/><path d="m488 352a0 0 0 0 1 0 0 48 48 0 0 1 -48 48 0 0 0 0 1 0 0 48 48 0 0 1 48-48z" fill="#7eb457" transform="matrix(0 -1 1 0 88 840)"/><path d="m120 120a0 0 0 0 1 0 0 48 48 0 0 1 -48 48 0 0 0 0 1 0 0 48 48 0 0 1 48-48z" fill="#7eb457" transform="matrix(0 -1 1 0 -48 240)"/><path d="m480 192a135.634 135.634 0 0 1 -5.336 37.773l15.367 4.454a151.53 151.53 0 0 0 5.969-42.227c0-71.52-48.621-132.473-118.234-148.227l-3.532 15.6c61.286 13.873 105.766 69.65 105.766 132.627z"/><path d="m197.957 234.23 15.367-4.46a135.465 135.465 0 0 1 -5.324-37.77c0-60.25 40.391-114 98.219-130.7l-4.438-15.375c-64.636 18.675-109.781 78.739-109.781 146.075a151.424 151.424 0 0 0 5.957 42.23z"/><path d="m448 192a103.578 103.578 0 0 1 -1.07 14.852l15.836 2.3a119.757 119.757 0 0 0 1.234-17.152c0-52.684-35.25-99.973-85.719-114.992l-4.562 15.336a104.593 104.593 0 0 1 74.281 99.656z"/><path d="m305.305 95.422-5.977-14.844a120.086 120.086 0 0 0 -70.328 145.711l15.328-4.578a104.1 104.1 0 0 1 60.977-126.289z"/><path d="m24 448h128v32h-24v16h96v-16h-24v-32h80a8 8 0 0 0 7.59-5.469l27.91-83.744-3.285 121.213h-16.215v16h96v-16h-16.214l-3.749-138.8a151.745 151.745 0 0 0 81.752-44.119l-11.57-11.055a135.746 135.746 0 0 1 -70.619 39.009l-.437-16.183a118.734 118.734 0 0 0 56.793-31.145l-11.219-11.414a102.826 102.826 0 0 1 -46.015 26.207l-1.781-65.924 102.8 59.389a16.122 16.122 0 0 0 7.813 2.027 16.638 16.638 0 0 0 13.269-26.363c-3.808-5.133-7.582-9.762-11.515-14.125a7.872 7.872 0 0 0 -.578-.719 199.591 199.591 0 0 0 -26.145-24.148 196.162 196.162 0 0 0 -79.585-36.589 31.917 31.917 0 0 0 -15-21.866v-132.104a16.257 16.257 0 0 0 -16.4-16.078 16.58 16.58 0 0 0 -15.184 9.789 185.558 185.558 0 0 0 -7.57 20.617 187.374 187.374 0 0 0 -7.43 34.871 195.709 195.709 0 0 0 9.241 86.538 31.9 31.9 0 0 0 -10.657 23.732c0 .218.06.419.064.635l-82.77 47.818h-141.294a8 8 0 0 0 -7.59 5.469l-64 192a8 8 0 0 0 7.59 10.531zm335.551-256.453a15.777 15.777 0 1 1 -15.774-16 15.9 15.9 0 0 1 15.774 16zm-167.551 240.453h-28.9l10.667-32h47.133l-10.667 32zm67.1-96 10.667-32h47.133l-10.667 32zm41.8 16-10.667 32h-47.133l10.667-32zm-58.667-16h-47.133l10.667-32h47.133zm-5.333 16-10.667 32h-47.133l10.667-32zm.867 48h47.133l-10.667 32h-47.133zm95.023-88.555c3.706.338 7.443.555 11.21.555 3.73 0 7.481-.216 11.229-.566l.432 15.983a129.668 129.668 0 0 1 -23.305 0zm3.742-15.74 15.058-45.174a8 8 0 0 0 -7.59-10.531h-9.293l.488-17.459c.077-.085.152-.173.228-.259a28.279 28.279 0 0 0 17.392-.215l1.98 73.307a107.447 107.447 0 0 1 -18.263.331zm-17.819-55.705h-1.007c.352-.309.686-.64 1.035-.952zm14.187 16-10.667 32h-47.133l10.667-32zm-74.667 32h-47.133l10.667-32h47.133zm-64 0h-47.133l10.667-32h47.133zm-5.333 16-10.667 32h-47.133l10.667-32zm-74.667 32h-47.133l10.667-32h47.133zm-5.333 16-10.667 32h-47.133l10.667-32zm16.867 0h47.133l-10.667 32h-47.133zm31.133 48-10.667 32h-47.133l10.667-32zm27.1 80h-16v-32h16zm144.219 0 3.7-136.546c4 .333 8.024.546 12.079.546s8.1-.215 12.094-.547l3.689 136.547zm140.09-223.086a8.26 8.26 0 0 0 .574.711 173.7 173.7 0 0 1 11.125 13.582l-.426.813-109.2-63.088a31.909 31.909 0 0 0 3.25-6.83 180.012 180.012 0 0 1 71.176 33.207 183.079 183.079 0 0 1 23.501 21.605zm-139-173.773a172.159 172.159 0 0 1 6.839-32.059 170.7 170.7 0 0 1 6.957-18.949l.895-.055v127.491c-.076 0-.146-.022-.223-.022a31.455 31.455 0 0 0 -6.78.771 179.749 179.749 0 0 1 -7.688-77.177zm-12.643 124.859a32.1 32.1 0 0 0 4.626 6.131 175.665 175.665 0 0 1 -29.544 25.869h-30.466zm-222.9 48h47.134l-10.667 32h-47.133zm-48 144h47.134l-10.667 32h-47.133z"/><path d="m176 80a56.063 56.063 0 0 0 56-56 8 8 0 0 0 -8-8 56.063 56.063 0 0 0 -56 56 8 8 0 0 0 8 8zm38.973-46.973a40.132 40.132 0 0 1 -29.946 29.946 40.132 40.132 0 0 1 29.946-29.946z"/><path d="m440 344a8 8 0 0 0 -8 8 56.063 56.063 0 0 0 56 56 8 8 0 0 0 8-8 56.063 56.063 0 0 0 -56-56zm9.027 17.027a40.132 40.132 0 0 1 29.946 29.946 40.132 40.132 0 0 1 -29.946-29.946z"/><path d="m120 176a8 8 0 0 0 8-8 56.063 56.063 0 0 0 -56-56 8 8 0 0 0 -8 8 56.063 56.063 0 0 0 56 56zm-9.027-17.027a40.132 40.132 0 0 1 -29.946-29.946 40.132 40.132 0 0 1 29.946 29.946z"/></g></svg>