<?xml version="1.0" encoding="iso-8859-1"?>
<!-- Generator: Adobe Illustrator 19.0.0, SVG Export Plug-In . SVG Version: 6.00 Build 0)  -->
<svg version="1.1" id="Capa_1" xmlns="http://www.w3.org/2000/svg" xmlns:xlink="http://www.w3.org/1999/xlink" x="0px" y="0px"
	 viewBox="0 0 320.192 320.192" style="enable-background:new 0 0 320.192 320.192;" xml:space="preserve">
<g>
	<g id="Dibujo_35_">
		<g>
			<path d="M259.466,82.808c-2.799,0-6.139,0.436-9.319,1.016c-11.566-39.593-47.747-67.262-90.051-67.262
				S81.605,44.231,70.05,83.824c-3.185-0.58-6.525-1.016-9.324-1.016C27.244,82.808,0,110.052,0,143.534
				s27.244,60.726,60.726,60.726c6.095,0,11.041-4.946,11.041-11.041s-4.946-11.041-11.041-11.041
				c-21.309,0-38.644-17.34-38.644-38.644s17.335-38.644,38.644-38.644c1.529,0,3.991,0.375,6.586,0.894v10.147
				c0,6.095,4.946,11.041,11.041,11.041s11.041-4.946,11.041-11.041V98.15c5.929-34.514,35.536-59.506,70.702-59.506
				s64.767,24.992,70.702,59.506v17.782c0,6.095,4.946,11.041,11.041,11.041s11.041-4.946,11.041-11.041v-10.147
				c2.595-0.519,5.051-0.894,6.586-0.894c21.304,0,38.644,17.34,38.644,38.644s-17.34,38.644-38.644,38.644
				c-6.095,0-11.041,4.946-11.041,11.041s4.946,11.041,11.041,11.041c33.482,0,60.726-27.244,60.726-60.726
				S292.948,82.808,259.466,82.808z"/>
			<path d="M168.294,149.386c-5.924-1.491-11.913,2.12-13.393,8.032l-33.123,132.493c-1.48,5.918,2.12,11.908,8.032,13.393
				c0.9,0.221,1.8,0.326,2.688,0.326c4.946,0,9.446-3.345,10.704-8.364l33.123-132.493
				C177.806,156.855,174.212,150.866,168.294,149.386z"/>
			<path d="M212.453,182.509c-5.918-1.496-11.908,2.12-13.387,8.032l-16.562,66.247c-1.48,5.918,2.12,11.913,8.038,13.393
				c0.9,0.226,1.8,0.331,2.683,0.331c4.946,0,9.451-3.345,10.704-8.364l16.556-66.247
				C221.97,189.979,218.371,183.983,212.453,182.509z"/>
			<path d="M107.562,182.509c-5.901-1.496-11.908,2.12-13.387,8.032l-16.562,66.247c-1.48,5.918,2.12,11.913,8.038,13.393
				c0.9,0.226,1.8,0.331,2.683,0.331c4.946,0,9.451-3.345,10.704-8.364l16.562-66.247
				C117.08,189.979,113.48,183.983,107.562,182.509z"/>
		</g>
	</g>
</g>
<g>
</g>
<g>
</g>
<g>
</g>
<g>
</g>
<g>
</g>
<g>
</g>
<g>
</g>
<g>
</g>
<g>
</g>
<g>
</g>
<g>
</g>
<g>
</g>
<g>
</g>
<g>
</g>
<g>
</g>
</svg>
